<?xml version="1.0" encoding="UTF-8" standalone="no"?>
<!DOCTYPE svg PUBLIC "-//W3C//DTD SVG 1.1//EN" "http://www.w3.org/Graphics/SVG/1.1/DTD/svg11.dtd">
<svg width="100%" height="100%" viewBox="0 0 96 96" version="1.1" xmlns="http://www.w3.org/2000/svg" xmlns:xlink="http://www.w3.org/1999/xlink" xml:space="preserve" xmlns:serif="http://www.serif.com/" style="fill-rule:evenodd;clip-rule:evenodd;stroke-linejoin:round;stroke-miterlimit:2;">
    <g id="Artboard1" transform="matrix(1.00712,0,0,0.951077,1.56144,1.97005)">
        <rect x="-1.55" y="-2.071" width="95.322" height="100.938" style="fill:none;"/>
        <g transform="matrix(1.08923,0,0,1.16985,-611.304,-2557.23)">
            <g transform="matrix(0.291475,0,0,0.291475,561.261,2184.63)">
                <path d="M252.838,124.271C258.238,150.043 253.971,175.826 242.344,197.624L210.935,179.49C209.836,181.632 208.634,183.712 207.334,185.725L238.748,203.862C225.706,224.859 205.519,241.478 180.501,249.716L169.869,210.036L158.057,213.201L168.692,252.891C142.77,258.34 116.816,253.992 94.917,242.207L113.035,210.825C110.899,209.714 108.826,208.5 106.821,207.189L88.692,238.588C67.814,225.515 51.301,205.368 43.125,180.441L82.87,169.791L79.705,157.98L39.964,168.628C34.576,142.838 38.882,117.024 50.557,95.209L81.954,113.336C83.058,111.197 84.265,109.119 85.569,107.109L54.161,88.976C67.241,67.981 87.461,51.374 112.499,43.176L123.139,82.887L134.951,79.722L124.314,40.024C150.372,34.616 177.595,38.944 200.766,52.322L150.741,138.968L287.078,102.437L290.243,114.248L252.838,124.271Z" style="fill:url(#_Radial1);"/>
            </g>
            <g transform="matrix(0.281544,-0.0754367,-0.0754367,-0.281544,564.671,2283.38)">
                <rect x="173.772" y="0.879" width="12.229" height="41.306" style="fill:url(#_Radial2);"/>
            </g>
            <g transform="matrix(0.281543,-0.0754389,-0.0754389,-0.281543,582.857,2275.84)">
                <rect x="106.818" y="250.755" width="12.228" height="41.306" style="fill:url(#_Radial3);"/>
            </g>
            <g transform="matrix(-0.0754367,-0.281544,-0.281544,0.0754367,600.963,2234.64)">
                <rect x="15.417" y="92.305" width="12.228" height="41.306" style="fill:url(#_Radial4);"/>
            </g>
        </g>
    </g>
    <defs>
        <radialGradient id="_Radial1" cx="0" cy="0" r="1" gradientUnits="userSpaceOnUse" gradientTransform="matrix(78.7309,284.052,-288.101,77.6245,106.126,6.66344)"><stop offset="0" style="stop-color:rgb(255,160,0);stop-opacity:1"/><stop offset="1" style="stop-color:rgb(255,95,0);stop-opacity:1"/></radialGradient>
        <radialGradient id="_Radial2" cx="0" cy="0" r="1" gradientUnits="userSpaceOnUse" gradientTransform="matrix(2.53275,-294.75,-298.375,-0.416246,177.162,296.362)"><stop offset="0" style="stop-color:rgb(255,160,0);stop-opacity:1"/><stop offset="1" style="stop-color:rgb(255,95,0);stop-opacity:1"/></radialGradient>
        <radialGradient id="_Radial3" cx="0" cy="0" r="1" gradientUnits="userSpaceOnUse" gradientTransform="matrix(2.53043,-294.75,-298.375,-0.413889,110.21,287.547)"><stop offset="0" style="stop-color:rgb(255,160,0);stop-opacity:1"/><stop offset="1" style="stop-color:rgb(255,95,0);stop-opacity:1"/></radialGradient>
        <radialGradient id="_Radial4" cx="0" cy="0" r="1" gradientUnits="userSpaceOnUse" gradientTransform="matrix(-294.75,-2.53275,-0.416246,298.375,167.067,-13.6147)"><stop offset="0" style="stop-color:rgb(255,160,0);stop-opacity:1"/><stop offset="1" style="stop-color:rgb(255,95,0);stop-opacity:1"/></radialGradient>
    </defs>
</svg>
