<?xml version="1.0" encoding="UTF-8" standalone="no"?><!DOCTYPE svg PUBLIC "-//W3C//DTD SVG 1.1//EN" "http://www.w3.org/Graphics/SVG/1.1/DTD/svg11.dtd"><svg width="100%" height="100%" viewBox="0 0 400 400" version="1.1" xmlns="http://www.w3.org/2000/svg" xmlns:xlink="http://www.w3.org/1999/xlink" xml:space="preserve" xmlns:serif="http://www.serif.com/" style="fill-rule:evenodd;clip-rule:evenodd;stroke-linejoin:round;stroke-miterlimit:2;"><g transform="matrix(4.16667,0,0,4.16667,0,0)"><g transform="matrix(1.0402,0,0,1.03054,-579.82,-2247.35)"><path d="M634.957,2220.85c1.574,7.512 0.33,15.027 -3.059,21.38l-9.155,-5.285c-0.32,0.624 -0.67,1.23 -1.049,1.817l9.156,5.287c-3.801,6.12 -9.685,10.964 -16.977,13.365l-3.099,-11.566l-3.443,0.923l3.1,11.568c-7.556,1.589 -15.121,0.321 -21.504,-3.114l5.281,-9.147c-0.623,-0.324 -1.227,-0.677 -1.811,-1.06l-5.284,9.152c-6.086,-3.81 -10.899,-9.682 -13.282,-16.948l11.585,-3.104l-0.923,-3.443l-11.583,3.104c-1.571,-7.517 -0.316,-15.041 3.087,-21.4l9.152,5.284c0.321,-0.624 0.673,-1.23 1.053,-1.815l-9.154,-5.286c3.812,-6.119 9.706,-10.96 17.004,-13.349l3.101,11.574l3.443,-0.922l-3.101,-11.571c7.596,-1.576 15.531,-0.315 22.284,3.585l-14.581,25.255l39.739,-10.648l0.923,3.442l-10.903,2.922Zm-17.985,48.249l-3.443,0.923l-3.116,-11.63l3.443,-0.922l3.116,11.629Zm-19.515,-72.84l-3.443,0.922l-3.116,-11.629l3.443,-0.922l3.116,11.629Zm-24.567,37.559l0.922,3.443l-11.629,3.116l-0.923,-3.443l11.63,-3.116Z"/></g></g></svg>